# xmcd
#
# Track frame offsets:
#	150
#	27398
#	34037
#	61432
#	68203
#	97160
#	102352
#	128808
#	134774
#	162134
#
# Disc length: 2458 seconds
#
# Revision: 1
# Processed by: cddbd v1.5.2PL0 Copyright (c) Steve Scherf et al.
# Submitted via: dBpowerAMP V4.0
#
DISCID=9009980a
DTITLE=Ku Qing-Yuan - Invisible Mountain 
DYEAR=2003
DGENRE=New Age
TTITLE0=Invisible Mountain 
TTITLE1=Water 
TTITLE2=Answers from East 
TTITLE3=Earth 
TTITLE4=The First Heart 
TTITLE5=Fire
TTITLE6=Reality 
TTITLE7=Wind 
TTITLE8=Calling Out of Time 
TTITLE9=Soul Rain
EXTD=
EXTT0=
EXTT1=
EXTT2=
EXTT3=
EXTT4=
EXTT5=
EXTT6=
EXTT7=
EXTT8=
EXTT9=
PLAYORDER=
